<svg xmlns="http://www.w3.org/2000/svg" viewBox="0 -0.5 48 48" shape-rendering="crispEdges">

<path stroke="#666633" d="M3 0h1M36 0h1M38 0h1M2 1h1M40 1h1M9 28h1M5 30h1M7 32h1M14 44h1" />
<path stroke="#868686" d="M4 0h1M3 1h1M4 24h1M5 25h1M7 26h1M35 42h1M36 43h1" />
<path stroke="#9999cc" d="M5 0h31M38 1h2M40 2h1M3 10h1M4 11h1M3 12h1M5 12h1M4 13h1M6 13h1M3 14h1M5 14h1M4 15h1M6 15h1M3 16h1M5 16h1M7 16h1M4 17h1M6 17h1M3 18h1M5 18h1M7 18h1M4 19h1M6 19h1M3 20h1M5 20h1M7 20h1M4 21h1M6 21h1M3 22h1M5 22h1M7 22h1M4 23h1M6 23h1M5 24h1M7 24h1M6 25h1M1 29h1M4 30h1M5 31h1M6 32h1M19 32h1M21 32h1M23 32h1M27 32h1M30 32h1M7 33h1M37 34h1M11 36h1M13 36h1M15 36h1M17 36h1M19 36h1M21 36h1M23 36h1M25 36h1M27 36h1M29 36h1M31 36h1M33 36h1M35 36h1M37 36h1M39 36h1M41 36h1M11 38h1M13 38h1M16 38h1M19 38h1M24 38h1M28 38h1M14 39h1M12 40h1M19 40h1M22 40h1M16 41h1M29 41h1M18 42h1M26 42h1M12 43h1M14 43h1M16 43h1M19 43h1M28 43h1M30 43h1M32 43h1M37 43h1M39 43h1M43 43h1M24 44h1M36 44h1M23 45h1M25 45h1M34 45h1M44 45h1" />
<path stroke="#996633" d="M37 0h1M3 29h1M6 31h1M15 31h1M9 32h1M16 32h1M40 32h1M32 33h1M39 33h1M41 33h1M15 39h1M17 43h1M38 45h1" />
<path stroke="#e7e7d6" d="M4 1h1M6 2h1M8 2h1M20 2h1M22 2h1M24 2h1M26 2h1M28 2h1M30 2h1M32 2h1M34 2h1M36 2h1M38 2h1M8 3h2M27 3h1M29 3h1M31 3h1M33 3h1M35 3h1M37 3h1M39 3h2M12 4h1M14 4h1M16 4h1M18 4h1M20 4h1M22 4h1M24 4h1M26 4h1M28 4h1M30 4h1M32 4h1M34 4h1M36 4h1M39 4h2M40 5h1M40 7h1M40 9h1M40 11h1M40 13h1M40 15h1M40 17h1M40 19h1M40 21h1M40 23h1M40 25h1M9 27h1M11 27h1M13 27h1M15 27h1M17 27h1M19 27h1M21 27h1M23 27h1M25 27h1M27 27h1M29 27h1M31 27h1M33 27h1M35 27h1M37 27h1M39 27h1M23 35h1M21 38h1M22 39h1M26 39h2M29 39h1M25 40h1M31 40h1M17 41h1M27 41h1M30 41h1M31 42h1M33 42h1M18 43h1M27 43h1M31 44h1M33 44h1" />
<path stroke="#efd6c6" d="M5 1h1M7 2h1M6 4h1M11 4h1M7 5h2M23 33h1M27 33h1M33 35h1M7 36h1M7 38h1M6 39h1M7 40h1M6 41h1M14 45h1M16 46h1M19 46h1M22 46h1M24 46h1M26 46h1M29 46h1" />
<path stroke="#ccccff" d="M6 1h32M3 2h1M9 2h11M21 2h1M23 2h1M25 2h1M27 2h1M29 2h1M31 2h1M33 2h1M35 2h1M37 2h1M39 2h1M4 3h1M41 3h1M5 4h1M41 4h1M6 5h1M10 5h1M41 5h1M7 6h2M40 6h2M8 7h1M41 7h1M8 8h1M40 8h2M8 9h1M41 9h1M8 10h1M40 10h2M8 11h1M41 11h1M8 12h1M40 12h2M8 13h1M41 13h1M40 14h2M8 15h1M41 15h1M40 16h2M8 17h1M41 17h1M40 18h2M8 19h1M41 19h1M40 20h2M8 21h1M41 21h1M40 22h2M8 23h1M41 23h1M40 24h2M8 25h1M41 25h1M11 26h1M40 26h2M10 27h1M12 27h1M14 27h1M16 27h1M18 27h1M20 27h1M22 27h1M24 27h1M26 27h1M28 27h1M30 27h1M32 27h1M34 27h1M36 27h1M38 27h1M40 27h1M11 28h1M13 28h1M15 28h1M17 28h1M19 28h1M21 28h1M23 28h1M25 28h1M27 28h1M29 28h1M31 28h1M33 28h1M35 28h1M37 28h1M39 28h1M2 29h1M3 30h1M3 31h2M5 32h1M5 33h2M21 33h2M28 33h2M7 34h1M9 34h1M11 34h1M40 34h1M42 34h1M8 35h1M10 35h1M12 35h2M20 35h1M36 35h1M40 35h1M6 36h1M8 36h2M42 36h2M7 37h1M43 37h1M6 38h1M7 39h1M6 40h1M7 41h1M11 41h1M41 42h1M13 44h1M25 44h1M16 45h1M33 45h1M14 46h2M17 46h2M20 46h2M23 46h1M25 46h1M27 46h2M30 46h2" />
<path stroke="#333366" d="M2 2h1M18 30h1M30 30h1M40 30h1M39 31h1M38 32h1M15 34h1M41 37h1M24 47h1M26 47h1M28 47h1M30 47h1M32 47h1M34 47h1M36 47h1M38 47h1M40 47h1M42 47h1M44 47h1M46 47h1" />
<path stroke="#ffffcc" d="M4 2h2M5 3h3M10 3h17M28 3h1M30 3h1M32 3h1M34 3h1M36 3h1M38 3h1M7 4h4M9 5h1M9 6h1M9 7h2M9 8h1M9 9h2M9 10h1M9 11h2M9 12h1M9 13h2M9 14h1M9 15h2M9 16h1M9 17h2M9 18h1M9 19h2M9 20h1M9 21h2M9 22h1M9 23h2M9 24h1M9 25h2M9 26h1M12 26h1M14 26h1M16 26h1M18 26h1M20 26h1M22 26h1M24 26h1M26 26h1M28 26h1M30 26h1M32 26h1M34 26h1M36 26h1M38 26h1M6 35h1M22 35h1M26 35h1M31 35h2M6 37h1M20 41h1M28 41h1" />
<path stroke="#999966" d="M41 2h1M41 27h1M19 33h1M30 33h1M42 33h1M38 34h1M11 42h1M14 42h1M44 42h1M23 43h1M43 45h1M36 46h1" />
<path stroke="#666699" d="M42 2h1M3 24h1M4 25h1M6 26h1M7 27h1M6 30h2M10 30h1M20 30h1M22 30h1M24 30h1M26 30h1M28 30h1M1 31h1M7 31h2M11 31h1M34 31h1M38 31h1M40 31h1M1 32h1M8 32h1M13 32h1M37 32h1M39 32h1M41 32h1M2 33h1M9 33h2M36 33h3M40 33h1M43 33h1M1 34h1M3 34h1M2 35h1M4 35h1M1 36h1M3 36h1M5 36h1M2 37h1M4 37h1M42 37h1M3 38h1M5 38h1M17 38h1M32 38h1M34 38h1M36 38h1M43 38h1M4 39h1M35 39h1M39 39h1M5 40h1M15 40h1M36 40h1M12 41h1M35 41h1M41 41h1M37 42h1M40 42h1M42 43h1M44 43h3M12 44h1M44 44h1M13 45h1M17 45h1M39 45h1M41 45h1M45 45h2" />
<path stroke="#393939" d="M2 3h1M2 4h1M2 5h1M2 6h1M2 7h1M2 8h1M2 9h1M2 10h1M2 11h1M2 12h1M2 13h1M2 14h1M2 15h1M2 16h1M2 18h1M2 19h1M2 21h1M2 22h1M2 23h1M2 24h1M0 29h1M0 30h1M0 31h1M41 31h1M0 32h1M42 32h1M0 33h1M0 34h1M0 35h1M0 36h1M0 37h1M36 39h1M37 41h1M40 41h1M42 42h1M38 43h1M42 44h1" />
<path stroke="#99ccff" d="M3 3h1M4 4h1M3 5h1M5 5h1M6 6h1M15 6h2M18 6h1M24 6h1M5 7h1M7 7h1M27 7h1M30 7h1M28 8h1M31 8h1M7 9h1M28 10h1M30 10h1M33 10h1M31 11h1M28 12h1M30 12h1M32 12h1M31 13h1M30 14h1M32 14h1M27 15h1M29 15h1M13 17h1M25 17h1M27 17h1M29 17h1M31 18h1M13 19h1M15 19h1M23 19h1M25 19h1M27 19h1M14 20h1M20 20h1M24 20h1M29 20h1M15 21h1M25 21h1" />
<path stroke="#000000" d="M42 3h1M42 4h1M19 5h1M36 5h1M42 5h1M42 6h1M42 7h1M42 8h1M42 9h1M42 10h1M42 11h1M42 12h1M42 13h1M42 14h1M42 15h1M42 16h1M42 17h1M42 18h1M42 19h1M42 20h1M42 21h1M42 22h1M42 23h1M42 24h1M42 25h1M4 26h1M42 26h1M42 27h1M7 29h18M29 29h1M31 29h6M40 29h1M8 30h1M11 30h1M15 30h1M19 30h1M21 30h1M23 30h1M25 30h1M27 30h1M29 30h1M31 30h1M10 31h1M18 31h1M20 31h1M22 31h1M24 31h1M26 31h1M28 31h1M12 32h1M35 33h1M17 34h2M24 34h4M29 34h2M33 34h2M10 37h1M12 37h1M43 39h1" />
<path stroke="#b2b2b2" d="M3 4h1M4 5h1M3 6h3M4 7h1M6 7h1M3 8h1M5 8h3M4 9h3M6 10h2M5 11h1M7 11h1M7 13h1M8 14h1M8 16h1M8 18h1M8 20h1M8 22h1M8 24h1M8 26h1M10 28h1M12 28h1M14 28h1M16 28h1M18 28h1M20 28h1M22 28h1M24 28h1M26 28h1M28 28h1M30 28h1M32 28h1M34 28h1M36 28h1M38 28h1M40 28h1M12 31h1M10 38h1M28 39h1M11 40h1M17 40h1M26 40h1M29 40h1M31 41h1M32 42h1M20 43h1M33 43h1M35 43h1M21 44h1M45 44h1M21 45h1M34 46h1" />
<path stroke="#ada990" d="M13 4h1M15 4h1M17 4h1M19 4h1M21 4h1M23 4h1M25 4h1M27 4h1M29 4h1M31 4h1M33 4h1M35 4h1M37 4h1M3 7h1M4 8h1M3 9h1M4 10h2M3 11h1M6 11h1M4 12h1M6 12h2M3 13h1M5 13h1M4 14h1M6 14h2M5 15h1M7 15h1M4 16h1M6 16h1M3 17h1M7 17h1M6 18h1M7 19h1M6 20h1M20 32h1M24 32h1M26 32h1M28 32h1M20 33h1M12 36h1M14 36h1M16 36h1M18 36h1M20 36h1M22 36h1M24 36h1M26 36h1M28 36h1M30 36h1M32 36h1M34 36h1M36 36h1M38 36h1M40 36h1M12 38h1M22 38h1M33 38h1M35 38h1M38 38h1M10 39h1M12 39h1M23 39h1M41 39h1M14 40h1M16 40h1M18 40h1M24 40h1M30 40h1M42 40h1M13 41h1M15 41h1M23 41h1M12 42h1M20 42h1M24 42h1M28 42h1M30 42h1M13 43h1M26 44h1M28 44h1M30 44h1M38 44h1M15 45h1M37 45h1M40 45h1M42 45h1" />
<path stroke="#d7d7d7" d="M38 4h1M22 41h1M23 42h1M24 43h1M26 45h1M28 45h2" />
<path stroke="#6699cc" d="M11 5h1M12 6h1M11 8h1M11 10h1M11 12h1M11 13h1M11 14h1M11 15h1M11 16h1M11 17h1M11 18h1M11 19h1M11 21h1M39 41h1M35 44h1" />
<path stroke="#6666cc" d="M12 5h1M11 6h1M11 7h1M11 9h1M11 11h1M14 31h1M15 32h1M17 32h1M32 32h2M16 33h3M31 33h1M14 34h1M17 42h1M22 42h1M36 42h1M20 44h1M38 46h1" />
<path stroke="#663399" d="M13 5h1M37 38h1M11 39h1M38 39h1M40 39h1M13 40h1M39 40h1M41 40h1M38 41h1M13 42h1M15 42h1M39 42h1M43 42h1M41 43h1M15 44h1M37 44h1M40 44h1M43 44h1" />
<path stroke="#3333cc" d="M14 5h1" />
<path stroke="#330099" d="M15 5h1" />
<path stroke="#000033" d="M16 5h3M12 30h1M34 33h1M25 37h1" />
<path stroke="#040404" d="M20 5h16M37 5h1M26 29h3M30 29h1M37 29h1M9 30h1M38 30h1M16 34h1M19 34h1M21 34h1M23 34h1M28 34h1M31 34h1M28 37h1" />
<path stroke="#3366cc" d="M38 5h1M37 6h1M38 7h1M38 8h1M38 9h1M38 10h1M38 11h1M38 12h1M38 13h1M38 14h1M38 15h1M38 16h1M38 17h1M38 18h1M38 19h1M38 20h1M38 21h1M38 22h1M38 23h1M38 24h1M13 25h25" />
<path stroke="#6699ff" d="M39 5h1M35 10h1M35 18h1M11 20h1M34 21h1M11 22h1M11 23h1M30 23h1M32 23h1M12 24h1M19 24h1M21 24h1M23 24h1" />
<path stroke="#ccffff" d="M10 6h1M10 8h1M10 10h1M18 10h1M17 11h1M19 11h1M10 12h1M18 12h1M10 14h1M10 16h1M39 17h1M10 18h1M39 18h1M39 19h1M10 20h1M39 20h1M39 21h1M10 22h1M39 22h1M39 23h1M10 24h1M39 24h1M39 25h1M10 26h1M13 26h1M15 26h1M17 26h1M19 26h1M21 26h1M23 26h1M25 26h1M27 26h1M29 26h1M31 26h1M33 26h1M35 26h1M37 26h1M39 26h1" />
<path stroke="#66ccff" d="M13 6h2M26 6h2M31 6h1M39 6h1M12 7h1M29 7h1M12 8h1M30 8h1M33 8h1M12 9h1M31 9h2M12 10h1M12 11h1M32 11h1M34 11h1M12 12h1M12 13h1M32 13h1M12 14h1M33 14h1M12 15h1M31 15h1M12 16h1M30 16h1M32 16h1M12 17h1M31 17h1M34 17h1M12 18h1M28 18h1M30 18h1M32 18h1M12 19h1M29 19h1M31 19h2M34 19h1M12 20h1M26 20h1M28 20h1M31 20h1M13 21h1M17 21h1M19 21h1M21 21h1M23 21h1M27 21h1M30 21h1M14 22h1M16 22h1M18 22h1M20 22h1M22 22h1M24 22h6M26 23h1" />
<path stroke="#66ffff" d="M17 6h1M19 6h3M13 7h6M20 7h3M39 7h1M13 8h1M15 8h1M17 8h1M19 8h1M22 8h1M25 8h1M39 8h1M13 9h2M16 9h1M20 9h1M22 9h3M26 9h1M39 9h1M13 10h1M15 10h1M21 10h1M23 10h2M39 10h1M13 11h2M22 11h3M13 12h3M21 12h1M23 12h3M14 13h1M16 13h1M20 13h1M22 13h2M26 13h1M14 14h2M17 14h1M19 14h1M21 14h3M25 14h1M13 15h4M18 15h1M20 15h2M24 15h1M26 15h1M16 16h6M23 16h1M25 16h1M16 17h1M18 17h1M22 17h1M24 17h1M17 18h1M19 18h1M21 18h1" />
<path stroke="#33ffff" d="M22 6h1M23 7h1M24 8h1M25 9h1M26 10h1M25 11h1M26 12h1M25 13h1M13 14h1M24 14h1M26 14h1M23 15h1M25 15h1M13 16h2M22 16h1M24 16h1M14 17h2M17 17h1M19 17h1M21 17h1M23 17h1M16 18h1M18 18h1M20 18h1M22 18h1" />
<path stroke="#00ffff" d="M23 6h1M24 7h2M26 8h1M29 8h1M27 9h3M27 10h1M26 11h1M28 11h3M27 12h1M27 13h1M29 13h1M27 14h3M30 15h1M26 16h4M26 17h1M28 17h1M14 18h2M23 18h3M27 18h1M29 18h1M14 19h1M16 19h7M24 19h1M26 19h1M13 20h1M16 20h2M19 20h1M21 20h1M23 20h1M27 20h1M16 21h1M18 21h1M20 21h1M22 21h1M24 21h1" />
<path stroke="#00ffcc" d="M25 6h1M26 7h1M28 7h1M27 8h1M30 9h1M29 10h1M31 10h1M27 11h1M29 12h1M31 12h1M28 13h1M30 13h1M31 14h1M28 15h1M31 16h1M30 17h1M13 18h1M26 18h1M28 19h1M30 19h1M15 20h1M18 20h1M22 20h1M25 20h1M14 21h1M26 21h1M28 21h1M15 22h1M17 22h1M19 22h1M21 22h1M23 22h1" />
<path stroke="#33ccff" d="M28 6h2M31 7h1M32 8h1M33 9h1M32 10h1M33 11h1M33 12h1M32 17h1M12 21h1M12 22h2M13 23h9M14 24h1M16 24h1" />
<path stroke="#00ccff" d="M30 6h1M34 10h1M34 14h1M32 15h2M33 16h1M33 17h1M33 18h1M33 19h1M30 20h1M32 20h1M29 21h1M31 21h1M23 23h1M25 23h1M27 23h1M18 24h1M20 24h1M22 24h1M24 24h1M26 24h1" />
<path stroke="#00cccc" d="M32 6h1M33 7h1M35 7h1M34 8h1M35 9h1M36 10h1M35 11h1M34 12h1M36 12h1M33 13h1M35 13h1M36 14h1M34 15h2M34 16h1M36 16h1M35 17h1M34 18h1M36 18h1M35 19h1M33 20h2M33 21h1M35 21h1M30 22h3M28 23h2M31 23h1M33 23h1" />
<path stroke="#3399ff" d="M33 6h1M35 6h2M34 7h1M36 7h2M35 8h3M36 9h2M37 10h1M36 11h1M37 12h1M36 13h2M35 14h1M36 15h2M36 17h2M37 19h1M35 20h2M34 22h3M12 23h1M34 23h2M11 24h1M13 24h1M15 24h1M17 24h1M25 24h1M27 24h1M32 24h1M12 25h1" />
<path stroke="#9999ff" d="M34 6h1M32 7h1M34 9h1M35 12h1M34 13h1M35 16h1M32 21h1M33 22h1M28 24h1M30 24h1M1 30h1M2 31h1M3 32h1M4 33h1M5 34h1M15 38h1M18 38h1M10 40h1M37 40h1M18 41h1M17 44h1M39 44h1M18 45h1M32 46h1" />
<path stroke="#333399" d="M38 6h1M3 25h1M7 28h1M26 37h1M29 37h1M32 37h1" />
<path stroke="#ccecff" d="M19 7h1M14 8h1M21 8h1M23 8h1M14 10h1M25 10h1M13 13h1M24 13h1M17 15h1M19 15h1M22 15h1M15 16h1M20 17h1M17 35h1M35 35h1M38 35h1M25 39h1M23 40h1M25 41h1M26 43h1M31 43h1" />
<path stroke="#99ffff" d="M16 8h1M18 8h1M20 8h1M15 9h1M17 9h3M21 9h1M16 10h2M19 10h2M22 10h1M15 11h2M18 11h1M20 11h2M39 11h1M16 12h2M19 12h2M22 12h1M39 12h1M15 13h1M17 13h3M21 13h1M39 13h1M16 14h1M18 14h1M20 14h1M39 14h1M39 15h1M39 16h1" />
<path stroke="#0099cc" d="M37 11h1M37 14h1M37 16h1M37 18h1M36 19h1M37 20h1M37 22h1M29 24h1M31 24h1M33 24h1M35 24h1M37 24h1" />
<path stroke="#999900" d="M3 15h1M5 17h1M4 18h1M3 19h1M5 19h1M4 20h1M3 21h1M5 21h1M7 21h1M4 22h1M6 22h1M5 23h1M7 23h1M6 24h1M7 25h1" />
<path stroke="#333333" d="M2 17h1M2 20h1M43 46h1M45 46h1" />
<path stroke="#0099ff" d="M36 21h2M36 23h2M34 24h1M36 24h1" />
<path stroke="#777777" d="M3 23h1" />
<path stroke="#33cccc" d="M22 23h1M24 23h1" />
<path stroke="#66cccc" d="M11 25h1" />
<path stroke="#3399cc" d="M38 25h1" />
<path stroke="#424242" d="M5 26h1M6 27h1M8 28h1M45 42h1" />
<path stroke="#999933" d="M8 27h1" />
<path stroke="#663300" d="M41 28h1M4 29h1M14 30h1M31 31h1M31 37h1M33 37h1M35 37h1M37 37h1M39 37h1" />
<path stroke="#333300" d="M5 29h2M38 29h1M34 30h1M16 31h2M19 31h1M21 31h1M23 31h1M25 31h1M27 31h1M29 31h2M11 32h1M12 33h1M35 34h1M44 34h1M44 35h1M44 36h1M34 37h1M36 37h1M38 37h1M40 37h1M44 37h1M44 38h1M44 39h1M44 40h1M44 41h1M18 47h1M20 47h1M22 47h2M25 47h1" />
<path stroke="#080808" d="M25 29h1M16 30h2M32 30h1M35 32h1M20 34h1M32 34h1" />
<path stroke="#161616" d="M39 29h1M11 37h1M13 37h9M23 37h1" />
<path stroke="#eaeaea" d="M2 30h1M4 32h1M24 33h3M6 34h1M7 35h1M9 35h1M11 35h1M37 35h1M41 35h3" />
<path stroke="#4d4d4d" d="M13 30h1M33 31h1M47 44h1M47 45h1M35 46h1M37 46h1M39 46h1M41 46h2M44 46h1M46 46h2M27 47h1M29 47h1M31 47h1M33 47h1M35 47h1M37 47h1M39 47h1M41 47h1M43 47h1M45 47h1M47 47h1" />
<path stroke="#0c0c0c" d="M33 30h1M36 30h2M36 31h2M36 32h1M22 34h1M22 37h1M8 40h1M8 41h1M7 42h2M9 43h1M10 44h1M11 45h1M12 46h1M13 47h1" />
<path stroke="#663333" d="M35 30h1M9 31h1M10 32h1M11 33h1M15 33h1" />
<path stroke="#222222" d="M39 30h1M13 33h1M33 33h1M27 37h1M1 38h1M2 39h1M3 40h1M43 40h1M4 41h1M5 42h2M10 43h1M11 44h1M12 45h1" />
<path stroke="#cc9933" d="M13 31h1M35 31h1M14 32h1M22 32h1M29 32h1M34 32h1M26 38h1M20 40h1M34 41h1M19 42h1M16 44h1M19 44h1" />
<path stroke="#993333" d="M32 31h1" />
<path stroke="#969696" d="M2 32h1M3 33h1M4 34h1M5 35h1M31 38h1M32 39h1M34 39h1M37 39h1M34 42h1M40 43h1M36 45h1M33 46h1" />
<path stroke="#cc9999" d="M18 32h1M31 32h1" />
<path stroke="#ffcc99" d="M25 32h1M23 38h1M31 39h1M28 40h1M24 41h1M29 42h1M22 43h1M25 43h1M34 43h1M29 44h1M32 44h1" />
<path stroke="#808000" d="M1 33h1M2 34h1M1 35h1M3 35h1M2 36h1M4 36h1M3 37h1M5 37h1M4 38h1M9 38h1M5 39h1" />
<path stroke="#999999" d="M8 33h1M8 34h1M10 34h1M12 34h2M39 34h1M33 41h1" />
<path stroke="#292929" d="M14 33h1M8 37h1M30 37h1M8 38h1M41 38h1M8 39h1M42 39h1M14 47h4M19 47h1M21 47h1" />
<path stroke="#666666" d="M36 34h1M9 39h1M13 46h1" />
<path stroke="#c0c0c0" d="M41 34h1M43 34h1M10 36h1M27 38h1M40 38h1M20 39h1M33 40h1M35 40h1M38 40h1M40 40h1M36 41h1M43 41h1M38 42h1M22 45h1M32 45h1M35 45h1" />
<path stroke="#f1f1f1" d="M14 35h1M34 35h1" />
<path stroke="#ffffff" d="M15 35h1M24 35h2M28 35h1" />
<path stroke="#fffbf0" d="M16 35h1M18 35h2M27 35h1M30 35h1M13 39h1M16 39h1M19 39h1M24 39h1M14 41h1M25 42h1M15 43h1M21 43h1M29 43h1" />
<path stroke="#f8f8f8" d="M21 35h1M29 35h1M39 35h1" />
<path stroke="#555555" d="M1 37h1M2 38h1M3 39h1M4 40h1M5 41h1" />
<path stroke="#111111" d="M9 37h1M24 37h1" />
<path stroke="#996699" d="M14 38h1M20 38h1M17 39h1M21 39h1M33 39h1M34 40h1M19 41h1M21 41h1M18 44h1M22 44h1" />
<path stroke="#cbcbcb" d="M25 38h1M21 40h1M16 42h1M23 44h1M19 45h1M24 45h1M31 45h1" />
<path stroke="#a0a0a4" d="M29 38h1M18 39h1M30 39h1M32 40h1M32 41h1M21 42h1M34 44h1M41 44h1M20 45h1" />
<path stroke="#cccccc" d="M30 38h1M27 40h1M30 45h1" />
<path stroke="#663366" d="M39 38h1" />
<path stroke="#1c1c1c" d="M42 38h1" />
<path stroke="#5f5f5f" d="M9 40h1M9 41h2M9 42h2M11 43h1M46 44h1" />
<path stroke="#dddddd" d="M26 41h1M27 42h1M27 44h1M27 45h1" />
<path stroke="#996666" d="M42 41h1" />
<path stroke="#666600" d="M40 46h1" />
</svg>